<svg fill="#000000" viewBox="-9 -9 48.00 48.00" xmlns="http://www.w3.org/2000/svg" stroke="#000000" stroke-width="0.63"><g id="SVGRepo_bgCarrier" stroke-width="0"></g><g id="SVGRepo_tracerCarrier" stroke-linecap="round" stroke-linejoin="round" stroke="#CCCCCC" stroke-width="0.36"></g><g id="SVGRepo_iconCarrier"><path d="M19.5 10c.277 0 .5.223.5.5v3c0 .277-.223.5-.5.5s-.5-.223-.5-.5v-3c0-.277.223-.5.5-.5zm-9 0c.277 0 .5.223.5.5v3c0 .277-.223.5-.5.5s-.5-.223-.5-.5v-3c0-.277.223-.5.5-.5zM15 20c-2.104 0-4.186.756-5.798 2.104-.542.4.148 1.223.638.76C11.268 21.67 13.137 21 15 21s3.732.67 5.16 1.864c.478.45 1.176-.364.638-.76C19.186 20.756 17.104 20 15 20zm0-20C6.722 0 0 6.722 0 15c0 8.278 6.722 15 15 15 8.278 0 15-6.722 15-15 0-8.278-6.722-15-15-15zm0 1c7.738 0 14 6.262 14 14s-6.262 14-14 14S1 22.738 1 15 7.262 1 15 1z"></path></g></svg>