<?xml version="1.0" encoding="UTF-8" standalone="no"?>
<!-- Created with Inkscape (http://www.inkscape.org/) -->

<svg
   width="27.78125mm"
   height="5.0323405mm"
   viewBox="0 0 27.78125 5.0323405"
   version="1.1"
   id="svg1669"
   inkscape:version="1.2.1 (9c6d41e410, 2022-07-14)"
   sodipodi:docname="drawing.svg"
   xmlns:inkscape="http://www.inkscape.org/namespaces/inkscape"
   xmlns:sodipodi="http://sodipodi.sourceforge.net/DTD/sodipodi-0.dtd"
   xmlns:xlink="http://www.w3.org/1999/xlink"
   xmlns="http://www.w3.org/2000/svg"
   xmlns:svg="http://www.w3.org/2000/svg">
  <sodipodi:namedview
     id="namedview1671"
     pagecolor="#ffffff"
     bordercolor="#111111"
     borderopacity="1"
     inkscape:showpageshadow="0"
     inkscape:pageopacity="0"
     inkscape:pagecheckerboard="1"
     inkscape:deskcolor="#d1d1d1"
     inkscape:document-units="mm"
     showgrid="false"
     inkscape:zoom="11.930303"
     inkscape:cx="47.777496"
     inkscape:cy="15.422911"
     inkscape:window-width="1920"
     inkscape:window-height="1017"
     inkscape:window-x="-8"
     inkscape:window-y="-8"
     inkscape:window-maximized="1"
     inkscape:current-layer="layer1" />
  <defs
     id="defs1666">
    <linearGradient
       inkscape:collect="always"
       xlink:href="#linearGradient5580-8"
       id="linearGradient1508"
       gradientUnits="userSpaceOnUse"
       gradientTransform="matrix(0.041681,0,0,0.051149,181.17,660.84)"
       x1="307.35001"
       y1="390.22"
       x2="307.35001"
       y2="728.08002" />
    <linearGradient
       id="linearGradient5580-8">
      <stop
         id="stop5582-41"
         style="stop-color:#ffffff;stop-opacity:.5"
         offset="0" />
      <stop
         id="stop5594-43"
         style="stop-color:#ffffff;stop-opacity:.2"
         offset=".52392" />
      <stop
         id="stop5590-98"
         style="stop-color:#ffffff;stop-opacity:.1"
         offset=".52392" />
      <stop
         id="stop5584-80"
         style="stop-color:#ffffff;stop-opacity:.1"
         offset="1" />
    </linearGradient>
    <linearGradient
       inkscape:collect="always"
       xlink:href="#linearGradient5580-8"
       id="linearGradient1510"
       gradientUnits="userSpaceOnUse"
       gradientTransform="matrix(0.040192,0,0,0.051149,209.13,660.84)"
       x1="307.35001"
       y1="390.22"
       x2="307.35001"
       y2="728.08002" />
    <linearGradient
       inkscape:collect="always"
       xlink:href="#linearGradient5580-8"
       id="linearGradient1512"
       gradientUnits="userSpaceOnUse"
       gradientTransform="matrix(-0.041681,0,0,0.051149,280.9,660.84)"
       x1="307.35001"
       y1="390.22"
       x2="307.35001"
       y2="728.08002" />
    <radialGradient
       inkscape:collect="always"
       xlink:href="#linearGradient4145"
       id="radialGradient1514"
       gradientUnits="userSpaceOnUse"
       gradientTransform="matrix(0.91379,0,0,0.52964,259.66,649.07)"
       cx="-41.719002"
       cy="90.945999"
       r="10.253" />
    <linearGradient
       id="linearGradient4145">
      <stop
         id="stop4147"
         style="stop-color:#11f0ff"
         offset="0" />
      <stop
         id="stop4149"
         style="stop-color:#11f0ff;stop-opacity:0"
         offset="1" />
    </linearGradient>
    <radialGradient
       inkscape:collect="always"
       xlink:href="#linearGradient4403-1"
       id="radialGradient1518"
       gradientUnits="userSpaceOnUse"
       gradientTransform="matrix(2.3408,0,0,0.2926,356.19,670.47)"
       cx="-41.719002"
       cy="90.945999"
       r="10.253" />
    <linearGradient
       id="linearGradient4403-1">
      <stop
         id="stop4405-1"
         style="stop-color:#ffb400"
         offset="0" />
      <stop
         id="stop4407-3"
         style="stop-color:#ffb400;stop-opacity:0"
         offset="1" />
    </linearGradient>
    <linearGradient
       inkscape:collect="always"
       xlink:href="#linearGradient3871"
       id="linearGradient1522"
       gradientUnits="userSpaceOnUse"
       x1="438.87"
       y1="690.51001"
       x2="452.70001"
       y2="690.51001" />
    <linearGradient
       id="linearGradient3871">
      <stop
         id="stop3873"
         style="stop-color:#ffffff"
         offset="0" />
      <stop
         id="stop3875"
         style="stop-color:#d9d9d9"
         offset="1" />
    </linearGradient>
    <linearGradient
       inkscape:collect="always"
       xlink:href="#linearGradient3871"
       id="linearGradient1520"
       gradientUnits="userSpaceOnUse"
       x1="446.14001"
       y1="684.66998"
       x2="446.14001"
       y2="696.03003" />
    <radialGradient
       inkscape:collect="always"
       xlink:href="#linearGradient4145"
       id="radialGradient1524"
       gradientUnits="userSpaceOnUse"
       gradientTransform="matrix(0.91379,0,0,0.52964,232.16,649.07)"
       cx="-41.719002"
       cy="90.945999"
       r="10.253" />
    <linearGradient
       inkscape:collect="always"
       xlink:href="#linearGradient3871"
       id="linearGradient1526"
       gradientUnits="userSpaceOnUse"
       gradientTransform="translate(-0.50046)"
       x1="194.46001"
       y1="688.82001"
       x2="194.46001"
       y2="692.79999" />
    <linearGradient
       inkscape:collect="always"
       xlink:href="#linearGradient3871"
       id="linearGradient1534"
       gradientUnits="userSpaceOnUse"
       gradientTransform="translate(5.751e-6)"
       x1="222.37"
       y1="684.01001"
       x2="222.37"
       y2="694.17999" />
  </defs>
  <g
     inkscape:label="Layer 1"
     inkscape:groupmode="layer"
     id="layer1"
     transform="translate(-83.335182,-186.61286)">
    <g
       id="g1573"
       transform="matrix(0.26458333,0,0,0.26458333,36.114995,6.651237)">
      <path
         id="path1470"
         sodipodi:nodetypes="ccccccc"
         style="fill:#072e66;stroke:#000000"
         inkscape:connector-curvature="0"
         d="m 180.03,680.67 h 27.997 l 0.002,16.996 c 0,0 -17.612,0.003 -26.315,0.003 -0.93302,0 -1.6842,-0.92178 -1.6842,-2.0667 v -14.932 z" />
      <path
         id="path1472"
         sodipodi:nodetypes="cccccc"
         style="fill:#072e66"
         inkscape:connector-curvature="0"
         d="m 208.71,681.24 h 25.997 c 0.005,4.4211 0.002,15.997 0.002,15.997 l -25.999,0.003 z" />
      <path
         id="path1474"
         sodipodi:nodetypes="ccccccc"
         style="fill:#801e0f;stroke:#000000"
         inkscape:connector-curvature="0"
         d="m 282.03,680.67 -46.997,-7e-5 c -0.005,4.6973 -0.002,16.996 -0.002,16.996 8.4376,0.006 36.612,0.003 45.315,0.003 0.93302,0 1.6842,-0.92178 1.6842,-2.0667 v -14.932 z" />
      <path
         id="path1476"
         d="m 180.03,680.67 h 27.997 l 0.002,16.996 c 0,0 -17.612,0.003 -26.315,0.003 -0.93302,0 -1.6842,-0.92178 -1.6842,-2.0667 v -14.932 z"
         sodipodi:nodetypes="ccccccc"
         style="fill:url(#linearGradient1508);stroke:#000000"
         inkscape:connector-curvature="0" />
      <path
         id="path1478"
         d="m 208.03,680.67 h 26.997 c 0.005,4.6973 0.002,16.996 0.002,16.996 l -26.999,0.003 z"
         sodipodi:nodetypes="cccccc"
         style="fill:url(#linearGradient1510);stroke:#000000"
         inkscape:connector-curvature="0" />
      <path
         id="path1480"
         d="m 282.03,680.67 -46.997,-7e-5 -0.002,16.996 c 0,0 36.612,0.003 45.315,0.003 0.93302,0 1.6842,-0.92178 1.6842,-2.0667 v -14.932 z"
         sodipodi:nodetypes="ccccccc"
         style="fill:url(#linearGradient1512);stroke:#000000"
         inkscape:connector-curvature="0" />
      <path
         id="path1482"
         d="m 178.47,680.19 c 0,0 4.2e-4,10.429 0,15.406 0,0.90657 0.32277,1.7965 0.875,2.4688 0.55223,0.67224 1.3583,1.1251 2.3125,1.125 33.289,-0.0152 69.394,-0.0215 98.625,0 0.95414,6e-5 1.7603,-0.45278 2.3125,-1.125 0.55223,-0.67222 0.875,-1.5622 0.875,-2.4688 V 680.19 m -1,0 v 15.406 c 0,0.67574 -0.23142,1.3334 -0.625,1.8125 -0.39358,0.4791 -0.92491,0.78129 -1.5625,0.78125 -36.754,-0.0123 -62.949,-0.044 -98.625,0 -0.63761,8e-5 -1.1689,-0.30214 -1.5625,-0.78125 -0.39357,-0.47911 -0.625,-1.1368 -0.625,-1.8125 4.2e-4,-4.9775 0,-15.406 0,-15.406 m 1,15.406 c 0,0.45113 0.13687,0.84686 0.34375,1.125 0.20688,0.27814 0.4719,0.46879 0.84375,0.46875 8.6042,-0.008 25.812,-0.0312 25.812,-0.0312 v -15.969 l -27,-5e-5 c 0,0 3.6e-4,9.734 0,14.406 z m 28,1.5938 26,-0.0312 v -15.969 h -26 z m 27,-16 v 15.969 c 0,0 29.875,0.0207 44.812,0.0312 0.37181,3e-5 0.63688,-0.1906 0.84375,-0.46875 0.20687,-0.27815 0.34375,-0.67388 0.34375,-1.125 v -14.406 h -46 z m -54,1 h 25 v 13.969 l -24.812,0.0312 c 0.0976,-1e-5 0.0371,-0.002 -0.0312,-0.0937 -0.0683,-0.0918 -0.15625,-0.24354 -0.15625,-0.5 3.8e-4,-4.4768 0,-13.406 0,-13.406 z m 28,0 h 24 v 13.969 l -24,0.0312 v -14 z m 27,0 h 44 v 13.406 c 0,0.25647 -0.0879,0.40817 -0.15625,0.5 -0.0683,0.0918 -0.12875,0.0937 -0.0312,0.0937 l -43.812,-0.0312 v -13.969 z"
         sodipodi:nodetypes="ccsccssccssccscccscccccccccccccsccccccccccccccccccccsccccc"
         style="color:#000000;text-indent:0;text-transform:none;fill:#ffffff;fill-opacity:0.5"
         inkscape:connector-curvature="0" />
      <path
         id="path1484"
         d="m 230.9,697.24 h -18.738 c 0,-2.9991 4.1947,-5.4304 9.3692,-5.4304 5.1744,0 9.3692,2.4313 9.3692,5.4304 z"
         sodipodi:nodetypes="ccsc"
         style="fill:url(#radialGradient1514)"
         inkscape:connector-curvature="0" />
      <path
         id="path1488"
         sodipodi:nodetypes="ccsc"
         style="fill:url(#radialGradient1518)"
         inkscape:connector-curvature="0"
         d="m 282.53,697.08 h -48 c 0,-1.6569 10.745,-3 24,-3 13.255,0 24,1.3431 24,3 z" />
      <g
         id="g1492"
         style="fill:url(#linearGradient1522);stroke:#000000;stroke-width:1.2734"
         transform="matrix(0.74065,0,0,0.83257,-71.64,114.27)">
        <path
           id="path1490"
           d="m 443.28,690.4 -3.1965,-5.2934 h 3.9274 l 1.9646,3.088 1.9899,-3.088 h 3.9265 l -3.1951,5.2762 3.3666,5.5336 h -3.9264 l -2.1615,-3.2778 -2.1362,3.2778 h -4.3323 z"
           sodipodi:nodetypes="ccccccccccccc"
           style="fill:url(#linearGradient1520);stroke:#000000;stroke-width:1.2734"
           inkscape:connector-curvature="0" />
      </g>
      <path
         id="path1494"
         sodipodi:nodetypes="ccsc"
         style="fill:url(#radialGradient1524)"
         inkscape:connector-curvature="0"
         d="m 203.4,697.24 h -18.738 c 0,-2.9991 4.1947,-5.4304 9.3692,-5.4304 5.1744,0 9.3692,2.4313 9.3692,5.4304 z" />
      <rect
         id="rect1496"
         style="fill:url(#linearGradient1526);stroke:#000000"
         ry="0"
         height="4"
         width="11"
         y="688.66998"
         x="188.53" />
      <path
         id="path1504"
         d="m 216.03,684.67 v 9 h 11 v -9 z m 3,3 h 5 v 3 h -5 z"
         sodipodi:nodetypes="cccccccccc"
         style="color:#000000;text-indent:0;text-transform:none;fill:url(#linearGradient1534);stroke:#000000"
         inkscape:connector-curvature="0" />
    </g>
  </g>
</svg>
