<svg enable-background="new 0 0 812.044 152.966" height="137.113092" viewBox="0 0 999.99999 188.37199" width="729.324957" xmlns="http://www.w3.org/2000/svg" xmlns:xlink="http://www.w3.org/1999/xlink"><linearGradient id="a" gradientUnits="userSpaceOnUse" x1="99.226601" x2="97.722702" y1="45.670399" y2="45.239201"><stop offset="0" stop-color="#8aa742"/><stop offset=".1" stop-color="#8aa742"/><stop offset=".25" stop-color="#b7ca33"/><stop offset=".4045" stop-color="#b7ca33"/><stop offset="1" stop-color="#8aa742"/></linearGradient><linearGradient id="b" gradientUnits="userSpaceOnUse" x1="107.3105" x2="105.8649" y1="17.1113" y2="17.010201"><stop offset="0" stop-color="#83b641"/><stop offset=".2" stop-color="#b7ca33"/><stop offset=".525" stop-color="#b7ca33"/><stop offset="1" stop-color="#8aa742"/></linearGradient><linearGradient id="c" gradientUnits="userSpaceOnUse" x1="170.7686" x2="171.4149" y1="20.5767" y2="21.6523"><stop offset="0" stop-color="#83b641"/><stop offset="1" stop-color="#595e48"/></linearGradient><linearGradient id="d" gradientUnits="userSpaceOnUse" x1="172.43359" x2="172.026" y1="21.408701" y2="21.894501"><stop offset="0" stop-color="#8aa742"/><stop offset="1" stop-color="#595e48"/></linearGradient><linearGradient id="e" gradientUnits="userSpaceOnUse" x1="173.0415" x2="173.0415" y1="21.805201" y2="22.834499"><stop offset="0" stop-color="#8aa742"/><stop offset="1" stop-color="#767e47"/></linearGradient><linearGradient id="f" gradientUnits="userSpaceOnUse" x1="155.31979" x2="153.9102" y1="77.9375" y2="77.838898"><stop offset="0" stop-color="#767e47"/><stop offset="1" stop-color="#8aa742"/></linearGradient><linearGradient id="g" gradientUnits="userSpaceOnUse" x1="155.9819" x2="155.0714" y1="78.063499" y2="79.074699"><stop offset="0" stop-color="#767e47"/><stop offset="1" stop-color="#595e48"/></linearGradient><linearGradient id="h" gradientUnits="userSpaceOnUse" x1="90.360802" x2="154.6489" y1="79.838898" y2="79.838898"><stop offset="0" stop-color="#8aa742"/><stop offset=".4" stop-color="#b7ca33"/><stop offset="1" stop-color="#8aa742"/></linearGradient><linearGradient id="i" gradientUnits="userSpaceOnUse" x1="89.9692" x2="88.951202" y1="74.917" y2="73.786301"><stop offset="0" stop-color="#767e47"/><stop offset=".1" stop-color="#767e47"/><stop offset=".65" stop-color="#83b641"/><stop offset="1" stop-color="#8aa742"/></linearGradient><linearGradient id="j" gradientUnits="userSpaceOnUse" x1="89.935501" x2="90.676498" y1="73.087402" y2="74.424103"><stop offset="0" stop-color="#8aa742"/><stop offset=".4045" stop-color="#83b641"/><stop offset=".8" stop-color="#8aa742"/><stop offset="1" stop-color="#8aa742"/></linearGradient><linearGradient id="k" gradientUnits="userSpaceOnUse" x1="163.58501" x2="162.0867" y1="49.529301" y2="49.099701"><stop offset="0" stop-color="#595e48"/><stop offset="1" stop-color="#83b641"/></linearGradient><linearGradient id="l" gradientUnits="userSpaceOnUse" x1="159.86909" x2="100.4596" y1="57.839802" y2="40.804401"><stop offset="0" stop-color="#6fbc48"/><stop offset=".3333" stop-color="#98c74f"/><stop offset=".6666" stop-color="#80c046"/><stop offset="1" stop-color="#607d3a"/></linearGradient><linearGradient id="m" gradientUnits="userSpaceOnUse" x1=".187" x2="63.144001" y1="129.19141" y2="129.19141"><stop offset="0" stop-color="#76a5d8"/><stop offset=".45" stop-color="#dae3ec"/><stop offset="1" stop-color="#3f87c7"/></linearGradient><clipPath id="n"><path d="m63.135 134.475c-14.331-9.648-29.868-17.465-62.942-3.793l16.045-56.079c33.079-13.68 49.107-6.4 63.426 3.303z"/></clipPath><linearGradient id="o" gradientUnits="userSpaceOnUse" x1="70.161102" x2="10.6821" y1="110.9561" y2="93.900703"><stop offset="0" stop-color="#2e499e"/><stop offset=".4" stop-color="#4496d1"/><stop offset=".725" stop-color="#a5cded"/><stop offset="1" stop-color="#007fc4"/></linearGradient><linearGradient id="p" gradientUnits="userSpaceOnUse" x1="16.246599" x2="16.246599" y1="74.212402" y2="74.620598"><stop offset="0" stop-color="#76a5d8"/><stop offset="1" stop-color="#2e499e"/></linearGradient><clipPath id="q"><path d="m35.432 7.781-.182-.052c.07-.238.234-.323.298-.35l.027-.008c.001.001-.06.126-.143.41z"/></clipPath><linearGradient id="r" gradientUnits="userSpaceOnUse" x1="19.1108" x2="82.387199" y1="62.3535" y2="62.3535"><stop offset="0" stop-color="#faab4f"/><stop offset=".25" stop-color="#faab4f"/><stop offset=".475" stop-color="#fcc193"/><stop offset=".525" stop-color="#fcc193"/><stop offset=".75" stop-color="#f89c3e"/><stop offset="1" stop-color="#f89c3e"/></linearGradient><linearGradient id="s" gradientUnits="userSpaceOnUse" x1="89.186501" x2="29.653999" y1="44.528801" y2="27.458099"><stop offset="0" stop-color="#cd2b2b"/><stop offset=".4" stop-color="#f2692a"/><stop offset=".725" stop-color="#fcb544"/><stop offset="1" stop-color="#f37237"/></linearGradient><linearGradient id="t" gradientUnits="userSpaceOnUse" x1="137.6787" x2="137.34171" y1="144.4785" y2="145.7364"><stop offset="0" stop-color="#d4a52e"/><stop offset="1" stop-color="#a87c3c"/></linearGradient><linearGradient id="u" gradientUnits="userSpaceOnUse" x1="153.5293" x2="153.5293" y1="89.365196" y2="90.400398"><stop offset=".0056" stop-color="#c19236"/><stop offset="1" stop-color="#d4a52e"/></linearGradient><linearGradient id="v"><stop offset=".0056" stop-color="#ffcd02"/><stop offset="1" stop-color="#a87c3c"/></linearGradient><linearGradient id="w" gradientUnits="userSpaceOnUse" x1="151.23" x2="151.8813" xlink:href="#v" y1="88.141602" y2="89.225601"/><linearGradient id="x" gradientUnits="userSpaceOnUse" x1="152.9268" x2="152.52811" xlink:href="#v" y1="88.972702" y2="89.4478"/><linearGradient id="y" gradientUnits="userSpaceOnUse" x1="136.3667" x2="134.9541" y1="143.90331" y2="143.8046"><stop offset="0" stop-color="#c19236"/><stop offset="1" stop-color="#ffcd02"/></linearGradient><linearGradient id="z" gradientUnits="userSpaceOnUse" x1="80.171402" x2="78.692902" y1="111.6348" y2="111.2108"><stop offset="0" stop-color="#d4a52e"/><stop offset=".1" stop-color="#d4a52e"/><stop offset=".2" stop-color="#ffc222"/><stop offset=".35" stop-color="#ffc222"/><stop offset="1" stop-color="#d4a52e"/></linearGradient><linearGradient id="A" gradientUnits="userSpaceOnUse" x1="144.2988" x2="142.89819" y1="116.2773" y2="115.8757"><stop offset="0" stop-color="#a87c3c"/><stop offset="1" stop-color="#ffd200"/></linearGradient><linearGradient id="B" gradientUnits="userSpaceOnUse" x1="136.95461" x2="136.2509" y1="143.748" y2="145.32851"><stop offset="0" stop-color="#c19236"/><stop offset="1" stop-color="#d4a52e"/></linearGradient><linearGradient id="C" gradientUnits="userSpaceOnUse" x1="71.436996" x2="135.6938" y1="145.625" y2="145.625"><stop offset="0" stop-color="#d4a52e"/><stop offset=".4" stop-color="#ffd200"/><stop offset="1" stop-color="#d4a52e"/></linearGradient><linearGradient id="D" gradientUnits="userSpaceOnUse" x1="70.992203" x2="69.9571" y1="140.8633" y2="139.7137"><stop offset="0" stop-color="#d4a52e"/><stop offset=".1" stop-color="#d4a52e"/><stop offset=".7" stop-color="#ffd200"/><stop offset="1" stop-color="#d4a52e"/></linearGradient><linearGradient id="E" gradientUnits="userSpaceOnUse" x1="71.022499" x2="71.754898" y1="138.93359" y2="140.2549"><stop offset="0" stop-color="#d4a52e"/><stop offset=".4" stop-color="#ffc222"/><stop offset=".8" stop-color="#ffcd02"/><stop offset="1" stop-color="#d4a52e"/></linearGradient><clipPath id="F"><path d="m88.131 83.682c14.313 9.633 29.822 16.309 62.76 4.969l-15.703 54.578c-28.98 12.742-48.541 5.09-63.201-3.77z"/></clipPath><linearGradient id="G" gradientUnits="userSpaceOnUse" x1="140.96581" x2="81.422997" y1="123.625" y2="106.5514"><stop offset="0" stop-color="#ffc907"/><stop offset=".1667" stop-color="#ffd200"/><stop offset=".3333" stop-color="#ffd952"/><stop offset=".625" stop-color="#ffcd02"/><stop offset="1" stop-color="#b77a36"/></linearGradient><linearGradient id="H" gradientUnits="userSpaceOnUse" x1="88.188004" x2="86.717003" y1="83.368202" y2="83.265297"><stop offset="0" stop-color="#ffc222"/><stop offset=".2" stop-color="#ffc222"/><stop offset=".525" stop-color="#ffd200"/><stop offset="1" stop-color="#d4a52e"/></linearGradient><g transform="matrix(1.231459 0 0 1.231459 .001125 .000735)"><g><path d="m190.929 39.175h3.407v-27.939l10.464 27.939h2.736l10.367-27.939v27.939h3.888v-32.019h-5.856l-9.455 25.588-9.6-25.588h-5.951z"/><path clip-rule="evenodd" d="m233.153 15.507h-3.696v23.668h3.696zm.143-8.351h-3.983v4.08h3.983z" fill-rule="evenodd"/><path d="m254.458 30.871c-.769 3.889-2.784 5.904-5.76 5.904-3.936 0-6.239-3.553-6.239-9.504 0-5.762 2.399-9.361 6.287-9.361 1.824 0 3.408.814 4.464 2.256.624.912.96 1.775 1.248 3.6l3.312-.623c-.96-5.377-4.128-8.258-8.976-8.258-6.144 0-10.175 4.992-10.175 12.482 0 7.535 3.936 12.434 9.983 12.434 2.64 0 4.703-.816 6.383-2.545 1.536-1.537 2.208-2.928 2.784-5.809z"/><path d="m266.551 39.175v-12.529c.097-5.041 3.504-8.594 7.968-8.209v-3.504c-.528-.049-1.056-.096-1.344-.096-1.824 0-3.601.814-4.656 2.064-.863 1.055-1.296 1.775-2.447 4.127v-5.521h-3.216v23.668z"/><path clip-rule="evenodd" d="m286.8 14.884c-6.335 0-10.702 5.041-10.702 12.387 0 7.535 4.127 12.529 10.318 12.529 6.384 0 10.943-5.09 10.943-12.195.001-7.729-4.127-12.721-10.559-12.721zm-.143 3.026c1.92 0 3.791.959 4.991 2.543 1.152 1.633 1.68 3.744 1.68 6.961 0 5.857-2.495 9.361-6.623 9.361-4.176 0-6.575-3.457-6.575-9.553 0-2.881.576-5.186 1.632-6.721 1.103-1.584 3.023-2.591 4.895-2.591z" fill-rule="evenodd"/><path d="m299.65 33.031c.576 2.064 1.199 3.072 2.447 4.129 2.017 1.775 4.704 2.641 8.063 2.641 5.855 0 9.743-2.93 9.743-7.25 0-3.84-2.352-6.145-7.199-7.008l-4.655-.816c-2.496-.48-3.696-1.537-3.696-3.313 0-2.113 2.016-3.504 5.088-3.504 3.023 0 4.943 1.15 6.048 3.695l3.359-.719c-1.152-3.938-4.368-6.002-9.311-6.002-5.376 0-8.928 2.785-8.928 6.961 0 3.359 2.352 5.76 6.383 6.529l4.992.912c2.688.527 4.08 1.729 4.08 3.648 0 2.305-2.256 3.84-5.568 3.84-2.207 0-4.463-.672-5.808-1.775-.768-.625-1.151-1.346-1.536-2.689z"/><path clip-rule="evenodd" d="m333.968 14.884c-6.336 0-10.703 5.041-10.703 12.387 0 7.535 4.128 12.529 10.319 12.529 6.383 0 10.942-5.09 10.942-12.195.001-7.729-4.126-12.721-10.558-12.721zm-.143 3.026c1.919 0 3.791.959 4.991 2.543 1.151 1.633 1.68 3.744 1.68 6.961 0 5.857-2.496 9.361-6.623 9.361-4.176 0-6.575-3.457-6.575-9.553 0-2.881.575-5.186 1.631-6.721 1.104-1.584 3.024-2.591 4.896-2.591z" fill-rule="evenodd"/><path d="m359.825 15.507h-5.76c0-2.59 0-2.783.432-3.791.528-1.488 2.063-2.256 4.512-2.256.721 0 1.2.047 2.208.336v-2.976c-1.632-.24-2.496-.336-3.504-.336-3.071 0-5.472 1.439-6.287 3.744-.528 1.393-.672 2.352-.769 5.279h-4.175v2.881h4.175v20.787h3.408v-20.787h5.76z"/><path d="m376.478 36.63c-1.296.24-1.968.289-2.832.289-2.544 0-3.839-1.248-3.839-3.697v-14.834h5.327v-2.881h-5.327v-6.24l-3.456.289-.145 5.951h-4.175v2.881h4.175v14.258c0 4.752 2.304 7.201 6.768 7.201 1.104 0 1.872-.047 3.504-.287z"/><path clip-rule="evenodd" d="m383.292 19.144-.995-2.195c.588-.205.924-.66.924-1.236 0-.805-.672-1.367-1.632-1.367h-2.028v4.799h.708v-2.039h1.32l.911 2.039h.792zm-3.024-2.603v-1.596h1.32c.539 0 .876.287.876.756 0 .516-.36.84-.961.84zm1.14-3.938c-2.327 0-4.199 1.826-4.199 4.105 0 2.316 1.836 4.164 4.14 4.164 2.279 0 4.128-1.848 4.128-4.141-.001-2.243-1.85-4.128-4.069-4.128zm-.012.588c1.896 0 3.492 1.621 3.492 3.541 0 1.969-1.584 3.553-3.54 3.553-1.98 0-3.552-1.584-3.552-3.576 0-.852.336-1.705.912-2.34.709-.782 1.608-1.178 2.688-1.178z" fill-rule="evenodd"/><path d="m720.228 49.191 14.769 24.855-17.059 26.419h9.985l11.855-18.721 10.817 18.721h13.312l-17.16-29.018 14.457-22.256h-9.672l-9.57 15.08-8.422-15.08z" fill="#f4793b"/><path clip-rule="evenodd" d="m778.45 117.834v-24.545c3.328 5.721 7.695 8.217 14.145 8.217 5.926 0 10.297-2.08 13.414-6.346 3.953-5.303 6.035-12.48 6.035-20.696 0-7.697-1.875-14.354-5.516-19.553-3.223-4.576-7.488-6.762-13.102-6.762-6.969 0-11.961 3.121-15.602 9.984v-8.943h-11.129v68.643h11.755zm0-45.659c0-8.424 4.574-14.561 11.023-14.561 6.551 0 10.297 6.447 10.297 17.682 0 10.711-3.848 17.057-10.191 17.057-6.449 0-11.129-5.408-11.129-12.896z" fill="#f4793b" fill-rule="evenodd"/><path d="m209.069 49.193h-18.43l26.204 96.036h17.71l17.422-70.552 19.15 70.552h18.141l25.629-96.036h-15.262l-18.141 69.975-19.151-69.975h-17.565l-17.277 69.975z"/><path clip-rule="evenodd" d="m335.77 145.229v-70.983h-15.982v70.983zm0-79.335v-16.701h-15.982v16.701z" fill-rule="evenodd"/><path d="m408.044 145.229v-45.786c0-7.344-.863-11.951-3.024-16.127-3.168-6.192-11.23-10.51-19.438-10.51-9.646 0-15.838 5.039-21.741 17.854v-16.414h-14.542v70.983h15.981v-36.428c0-5.471.864-9.789 2.592-13.244 2.736-5.328 7.775-8.783 13.103-8.783 6.768 0 11.087 5.471 11.087 14.109v44.346z"/><path clip-rule="evenodd" d="m479.763 145.229v-96.036h-15.98v34.7c-3.891-8.495-9.938-12.528-19.008-12.528-7.484 0-13.535 2.594-17.996 7.776-6.336 7.199-9.934 17.998-9.934 29.66 0 10.943 3.309 22.463 8.063 28.797 4.605 5.904 11.23 9.07 19.004 9.07 10.078 0 16.414-4.895 20.879-15.693v14.254zm-15.981-29.803c0 10.223-6.625 18.141-15.121 18.141-9.645 0-14.828-8.35-14.828-23.9 0-15.838 5.473-24.621 15.262-24.621 4.176 0 8.063 1.871 10.941 5.326 2.738 3.313 3.746 6.768 3.746 12.959z" fill-rule="evenodd"/><path clip-rule="evenodd" d="m521.806 72.806c-19.582 0-33.262 15.118-33.262 36.715 0 9.07 2.305 17.135 7.055 24.045 5.762 8.639 14.398 13.102 25.34 13.102 19.871 0 33.695-15.117 33.695-36.859 0-9.213-1.73-15.693-5.906-22.461-6.336-9.934-14.973-14.542-26.922-14.542zm0 13.102c10.223 0 15.836 8.207 15.836 23.469 0 15.551-5.758 24.189-16.125 24.189-10.223 0-15.984-8.639-15.984-23.9s5.905-23.758 16.273-23.758z" fill-rule="evenodd"/><path d="m571.048 74.246h-16.992l21.886 70.983h14.832l12.668-49.817 12.817 49.817h14.394l20.879-70.983h-13.535l-13.676 47.803-12.527-47.803h-14.543l-12.094 47.803z"/><path d="m648.22 128.959c1.73 5.471 3.602 8.207 7.344 11.086 5.906 4.32 13.68 6.623 22.75 6.623 18.863 0 30.957-8.926 30.957-23.035 0-11.23-6.047-18.287-17.855-20.59l-15.262-3.168c-7.199-1.439-10.223-3.887-10.223-8.063 0-4.607 4.895-7.633 12.527-7.633 7.344 0 11.086 2.305 12.957 8.064l14.398-3.023c-3.313-10.799-12.668-16.415-27.355-16.415-9.934 0-16.844 2.447-21.742 7.776-3.598 3.887-5.613 9.215-5.613 14.83 0 11.518 6.766 18.141 21.453 20.877l12.957 2.592c4.754.863 7.777 3.6 7.777 7.055 0 5.615-5.328 8.783-14.402 8.783-8.637 0-12.668-2.305-15.691-8.639z"/><path clip-rule="evenodd" d="m708.907 79.004-.996-2.196c.586-.205.922-.66.922-1.236 0-.805-.672-1.369-1.633-1.369h-2.027v4.801h.711v-2.04h1.316l.914 2.04zm-3.023-2.604v-1.596h1.316c.543 0 .879.287.879.756 0 .516-.363.84-.961.84zm1.137-3.938c-2.328 0-4.199 1.824-4.199 4.105 0 2.316 1.836 4.165 4.141 4.165 2.281 0 4.129-1.848 4.129-4.141-.001-2.244-1.849-4.129-4.071-4.129zm-.012.588c1.898 0 3.492 1.621 3.492 3.541 0 1.969-1.582 3.553-3.539 3.553-1.98 0-3.551-1.584-3.551-3.577 0-.852.336-1.705.91-2.34.707-.78 1.61-1.177 2.688-1.177z" fill-rule="evenodd"/><path d="m149.087 139.336v5.912h.827v-5.912h1.901v-.727h-4.628v.727z"/><path d="m152.76 145.248h.707v-5.793l2.169 5.793h.568l2.149-5.793v5.793h.806v-6.639h-1.214l-1.96 5.305-1.99-5.305h-1.235z"/></g><g><path d="m170.407 21.106c-32.996 13.644-48.867 5.999-63.164-3.624.033-.126.092-.37-.004-.604 14.297 9.625 30.486 17.371 63.48 3.729-.219.201-.219.301-.312.499z" fill="#83b641"/><path clip-rule="evenodd" d="m105.901 17.319-16.115 55.979-1.242.983.001-.129 16.178-55.991z" fill="#8aa742" fill-rule="evenodd"/><path d="m91 73.923c-.502-.281-.864-.847-1.31-.672l16.155-55.907c.248-.111.873-.325 1.463.14z" fill="url(#a)"/><path clip-rule="evenodd" d="m106.053 16.956-.166.4-1.178.851c.1-.382.998-1.019 1.275-1.212.052-.036.069-.039.069-.039z" fill="#8aa742" fill-rule="evenodd"/><path d="m107.252 17.444c-.611-.377-1.162-.194-1.412-.086.039-.119.145-.363.145-.363.531-.336.762-.352 1.258-.115.064.185.091.363.009.564z" fill="url(#b)"/><g clip-rule="evenodd" fill-rule="evenodd"><path d="m171.631 21.522s-.369-.509-1.252-.346c.078-.209.078-.405.34-.57.531-.08.789.06.902.169.063.062.082.113.082.113.071.312-.072.634-.072.634z" fill="url(#c)"/><path d="m171.622 20.775 1.305 1.047c.078.35-.09.705-.09.705l-1.309-1.051s.164-.39.094-.701z" fill="url(#d)"/><path d="m172.887 22.461-16.406 56.251-1.238-1.093 16.312-56.217z" fill="#595e48"/><path d="m156.801 79.119c.035-.321-.307-.586-.307-.586l16.376-56.123s.26.234.33.403z" fill="#767e47"/><path d="m173.196 22.834s-.059-.161-.338-.396c.127-.528.043-.634.043-.634l.025.017c0 .001.41.374.27 1.013z" fill="url(#e)"/><path d="m156.254 79.643c-8.818 4.004-17.164 6.07-24.914 6.746-13.383 1.52-24.205-1.391-33.047-5.734-3.438-1.578-6.551-3.364-9.305-5.219l.149-.129c2.792 1.879 5.835 3.715 9.155 5.348 8.984 4.125 20.195 6.848 33.047 5.734 7.32-.828 15.406-2.988 24.355-6.957.252.203.56.211.56.211z" fill="#595e48"/></g><path d="m154.473 78.599s-.631-.566-.516-1.395c.848-.217 1.391.32 1.391.32s-.156.763-.875 1.075z" fill="url(#f)"/><path clip-rule="evenodd" d="m155.348 77.525 1.186 1.035s-.182.649-.902.965l-1.205-1.032c.722-.316.921-.968.921-.968z" fill="url(#g)" fill-rule="evenodd"/><path d="m154.153 77.187c-.115.83.496 1.436.496 1.436-33.002 13.645-50.004 5.61-64.288-4.066.251-.184.29-.182.453-.764 14.282 9.678 35.87 16.459 63.339 3.394z" fill="url(#h)"/><path clip-rule="evenodd" d="m89.144 75.365 1.227-.82c14.29 9.2 31.169 17.157 64.136 3.91l1.193 1.036c-31.653 13.964-51.903 6.187-66.556-4.126z" fill="#767e47" fill-rule="evenodd"/><path clip-rule="evenodd" d="m156.801 79.119c-.164.301-.451.473-.547.523-.02.012-.033.012-.033.012s-.225.031-.525-.164c.645-.352.832-1.055.832-1.055s.375.313.273.684z" fill="#767e47" fill-rule="evenodd"/><path clip-rule="evenodd" d="m89.189 75.349-.147.121s-.804-.434-.496-1.318c.072.869.643 1.197.643 1.197z" fill="#767e47" fill-rule="evenodd"/><path d="m88.545 74.152 1.184-.936c-.069.902.711 1.277.711 1.277l-1.204.926s-.759-.363-.691-1.267z" fill="url(#i)"/><path d="m89.703 73.216c.405-.123.771.297 1.267.682-.161.584-.303.484-.554.67-.294-.176-.788-.61-.713-1.352z" fill="url(#j)"/><path d="m153.997 77.314 16.332-56.189c.883-.163 1.305.337 1.305.337l-16.285 56.063c-.001 0-.653-.5-1.352-.211z" fill="url(#k)"/><path d="m170.407 21.09c-32.996 13.642-48.861 5.973-63.16-3.65l-16.278 56.462c14.285 9.678 31.531 17.635 63.188 3.463z" fill="url(#l)"/></g><g><path clip-rule="evenodd" d="m1.36 132.346c.108.016.307-.078.307-.078.229.156.411.266.411.266s-.358.085-.718-.188z" fill="#313c7e" fill-rule="evenodd"/><path d="m62.57 135.236s.219.203.471.133l-.989.586c-.316.141-.641-.082-.641-.082z" fill="#313c7e"/><path d="m1.68 132.275s-.193.098-.302.082l-1.085-.828-.025-.023c.157.055.338.027.411.012z" fill="#313c7e"/><path d="m63.125 134.428c.113.082.232.172.344.398-.063.297-.311.449-.451.559-.202.047-.485-.145-.485-.145.158-.133.428-.324.592-.812z" fill="#2e499e"/><path clip-rule="evenodd" d="m16.084 74.602997h.324v.018h-.324z" fill="#2e499e" fill-rule="evenodd"/><path clip-rule="evenodd" d="m.207 130.799-.184-.047 16.063-56.192.181.051z" fill="#2e499e" fill-rule="evenodd"/><path clip-rule="evenodd" d="m.293 131.529c-.208-.18-.352-.488-.271-.777l.193-.074c-.081.418.226.719.45.848.002-.001-.162.081-.372.003z" fill="#2e499e" fill-rule="evenodd"/><path d="m62.56 135.275c-14.332-9.645-29.185-17.012-61.874-3.73-.225-.133-.567-.453-.487-.875 33.192-14.129 48.613-5.875 62.945 3.773-.146.512-.426.703-.584.832z" fill="url(#m)"/><g clip-rule="evenodd" fill-rule="evenodd"><path d="m1.615 132.232c31.464-12.301 45.567-5.602 59.892 3.621-8.58-5.523-17.41-9.945-29.594-10.02-8.154-.047-17.791 2.023-29.851 6.699 0 .001-.249-.093-.447-.3z" fill="#313c7e"/><path d="m62.577 135.271-1.159.605c-14.325-9.223-28.823-15.598-59.737-3.602l-1.022-.746c32.689-13.284 47.587-5.905 61.918 3.743z" fill="#2e499e"/><path d="m63.115 134.459 16.527-56.567c.177.123.271.219.363.324l-16.542 56.637c-.093-.238-.348-.394-.348-.394z" fill="#313c7e"/><path d="m79.635 77.919c-14.318-9.704-30.467-16.728-63.403-3.285.082-.281.149-.414.149-.414 33.081-13.678 49.056-6.416 63.373 3.289z" fill="#3f87c7"/></g><g clip-path="url(#n)"><path d="m63.141 134.596c-14.331-9.645-29.91-17.578-62.984-3.902l16.195-56.567c33.081-13.678 48.973-5.938 63.29 3.766z" fill="url(#o)"/><path d="m63.141 134.596c-14.331-9.645-29.91-17.578-62.984-3.902l16.195-56.567c33.081-13.678 48.973-5.938 63.29 3.766z" fill="none"/></g><path clip-rule="evenodd" d="m79.749 77.505.027.016c.204.145.287.426.229.695l-.012.035c-.091-.104-.186-.203-.362-.326z" fill="#313c7e" fill-rule="evenodd"/><path clip-rule="evenodd" d="m16.265 74.621-.181-.053c.069-.238.232-.32.297-.348l.027-.008c.001 0-.06.125-.143.409z" fill="url(#p)" fill-rule="evenodd"/></g><g><path clip-rule="evenodd" d="m81.828 68.497c-15.398-10.686-34.272-17.397-62.301-3.468l1.146.809c30.627-12.517 46.605-5.742 60.041 3.108z" fill="#d75329" fill-rule="evenodd"/><path clip-rule="evenodd" d="m82.368 67.668 16.27-56.174c.176.12.262.236.355.34l-16.277 56.222c-.093-.236-.348-.388-.348-.388z" fill="#ab4533" fill-rule="evenodd"/><path clip-rule="evenodd" d="m20.683 65.82c5.212-2.138 10.039-3.725 14.518-4.814 1.086-.263 2.051-.501 3.197-.722 1.055-.21 2.097-.415 3.116-.565 1.597-.244 3.146-.445 4.654-.561 1.29-.102 2.545-.177 3.774-.188 1.188-.014 2.349.002 3.483.067 1.01.058 1.998.131 2.971.246.822.096 1.626.197 2.421.334 1.679.288 3.301.642 4.869 1.087 6.332 1.791 11.956 4.844 17.127 8.292-.034.016-.158-.036-.212-.065-.05-.024-.073-.026-.117-.056-6.991-4.432-14.502-8.286-23.77-9.423-9.486-1.166-20.54.467-35.433 6.378 0 0-.347.147-.479.171-.119.019-.097-.072-.119-.181z" fill="#ab4533" fill-rule="evenodd"/><path d="m81.802 68.487s.221.155.471.098l-1.027.453c-.277.081-.606-.09-.606-.09z" fill="#ab4533"/><path d="m20.697 65.83s.063.105.105.173c-.101.014-.113.04-.362-.071-.033-.013-.083-.054-.124-.072l-1.063-.836-.096-.079c.145-.01.256.06.329.046z" fill="#ab4533"/><path d="m82.379 67.67c.114.076.25.121.345.357-.063.299-.317.449-.459.559-.252.071-.501-.123-.501-.123.159-.127.451-.307.615-.793z" fill="#d75329"/><g clip-rule="evenodd" fill-rule="evenodd"><path d="m98.747 11.129.02.012c.201.144.285.426.227.693l-.01.036c-.094-.105-.154-.209-.338-.348z" fill="#d75329"/><path d="m19.179 64.975c-.154-.121-.309-.594-.229-.882l.216-.075c-.08.417.178.892.402 1.021.001 0-.157.089-.389-.064z" fill="#d75329"/><path clip-path="url(#q)" d="m35.25 7.372h.325v.024h-.325z" fill="#faaa4f"/><path clip-path="url(#q)" d="m35.25 7.396h.325v.027h-.325z" fill="#f6a34c"/><path clip-path="url(#q)" d="m35.25 7.423h.325v.024h-.325z" fill="#f39d48"/><path clip-path="url(#q)" d="m35.25 7.448h.325v.027h-.325z" fill="#f09745"/><path clip-path="url(#q)" d="m35.25 7.475h.325v.025h-.325z" fill="#ed9142"/><path clip-path="url(#q)" d="m35.25 7.5h.325v.024h-.325z" fill="#eb8c3f"/><path clip-path="url(#q)" d="m35.25 7.525h.325v.025h-.325z" fill="#e8863c"/><path clip-path="url(#q)" d="m35.25 7.55h.325v.024h-.325z" fill="#e68139"/><path clip-path="url(#q)" d="m35.25 7.575h.325v.025h-.325z" fill="#e57b37"/><path clip-path="url(#q)" d="m35.25 7.6h.325v.025h-.325z" fill="#e27634"/><path clip-path="url(#q)" d="m35.25 7.625h.325v.026h-.325z" fill="#e07132"/><path clip-path="url(#q)" d="m35.25 7.652h.325v.025h-.325z" fill="#df6b30"/><path clip-path="url(#q)" d="m35.25 7.677h.325v.024h-.325z" fill="#dc662e"/><path clip-path="url(#q)" d="m35.25 7.702h.325v.027h-.325z" fill="#db602c"/><path clip-path="url(#q)" d="m35.25 7.729h.325v.024h-.325z" fill="#d95a2a"/><path clip-path="url(#q)" d="m35.25 7.753h.325v.027h-.325z" fill="#d75329"/></g><path d="m81.798 68.491c-8.814-5.762-17.065-10.532-30.13-10.908-9.554.189-16.878 1.406-32.113 7.457-.225-.128-.51-.447-.431-.866 13.191-5.617 23.663-8.04 32.354-7.955 13.16.131 22.283 5.637 30.909 11.44-.146.508-.43.703-.589.832z" fill="url(#r)"/><path clip-rule="evenodd" d="m35.255 7.719.151.048-16.245 56.388c-.037-.016-.21-.062-.21-.062z" fill="#d75329" fill-rule="evenodd"/><path clip-rule="evenodd" d="m98.641 11.559c-14.308-9.695-30.338-17.181-63.251-3.748.084-.282.158-.432.158-.432 33.059-13.667 48.907-5.937 63.218 3.762z" fill="#f89c3e" fill-rule="evenodd"/><path d="m82.392 67.68c-8.628-5.81-17.907-11.233-31.085-11.333-8.695-.067-19.045 2.403-32.184 7.836l16.283-56.422c33.059-13.669 48.938-5.933 63.245 3.764z" fill="url(#s)"/></g><g><g clip-rule="evenodd" fill-rule="evenodd"><path d="m137.993 145.178c-.16.297-.449.473-.545.523-.021.012-.035.012-.035.012s-.275.035-.525-.164c.645-.352.836-1.059.836-1.059s.372.317.269.688z" fill="url(#t)"/><path d="m137.993 145.178c.039-.32-.305-.59-.305-.59l15.668-54.613s.262.23.334.402z" fill="#d4a52e"/><path d="m153.68 90.4s-.051-.156-.332-.391c.129-.531.039-.645.039-.645l.025.016c.001.001.413.38.268 1.02z" fill="url(#u)"/><path d="m152.118 89.084s-.434-.527-1.316-.363c.047-.199.121-.441.402-.555.533-.082.789.059.902.168.064.066.082.113.082.113.07.313-.07.637-.07.637z" fill="url(#w)"/><path d="m152.106 88.334 1.307 1.047c.076.355-.064.707-.064.707l-1.301-1.043c-.001 0 .128-.399.058-.711z" fill="url(#x)"/><path d="m152.042 88.963 1.33 1.062-15.649 54.594-.062.149-1.373-1.184z" fill="#a87c3c"/></g><path d="m135.516 144.564s-.629-.563-.516-1.395c.848-.215 1.395.32 1.395.32s-.156.759-.879 1.075z" fill="url(#y)"/><path d="m150.856 88.775c-33.176 11.301-48.441 4.547-62.754-5.086.034-.129.122-.34.025-.578 14.313 9.633 30.143 16.211 63.076 5.055-.249.172-.281.406-.347.609z" fill="#ffcd02"/><path clip-rule="evenodd" d="m86.778 83.533-16.021 55.727-1.244.984.003-.133 16.085-55.722z" fill="#d4a52e" fill-rule="evenodd"/><path d="m72.12 139.525c-.467-.277-1.011-.488-1.457-.309l16.063-55.66c.25-.105.844-.27 1.453.156z" fill="url(#z)"/><path d="m135.04 143.283 15.758-54.582c.029-.008.068-.047.094-.051.838-.086 1.227.359 1.227.359l-15.715 54.496c-.001.001-.665-.515-1.364-.222z" fill="url(#A)"/><path clip-rule="evenodd" d="m137.448 145.701c-32.396 13.848-53.176 5.332-67.489-4.305l.15-.125c14.313 9.633 36.339 17.656 66.778 4.219.252.199.561.211.561.211z" fill="#a87c3c" fill-rule="evenodd"/><path clip-rule="evenodd" d="m136.393 143.498 1.334 1.121s-.18.648-.902.965l-1.355-1.125c.722-.316.923-.961.923-.961z" fill="url(#B)" fill-rule="evenodd"/><path d="m135.196 143.154c-.113.832.498 1.434.498 1.434-33.037 13.664-49.957 5.473-64.257-4.219.252-.184.375-.344.536-.922.021.012.221-.02.241-.008 14.761 9.09 33.654 16.274 62.982 3.715z" fill="url(#C)"/><path clip-rule="evenodd" d="m70.115 141.326 1.322-.957c13.117 8.18 31.501 17.141 64.114 4.055l1.348 1.125c-30.313 13.426-52.471 5.414-66.784-4.223z" fill="#c19236" fill-rule="evenodd"/><path clip-rule="evenodd" d="m70.227 141.369-.15.105s-.87-.48-.561-1.363c.071.871.711 1.258.711 1.258z" fill="#d4a52e" fill-rule="evenodd"/><path d="m69.516 140.111 1.242-1.016c-.068.91.813 1.246.813 1.246l-1.364 1.043c.001.001-.76-.366-.691-1.273z" fill="url(#D)"/><path d="m70.666 139.131c.445-.18.862.031 1.331.305-.163.582-.261.785-.513.969-.294-.176-.893-.536-.818-1.274z" fill="url(#E)"/><path clip-path="url(#F)" d="m88.226 83.334c14.313 9.637 30.212 17.313 63.243 3.66l-16.281 56.234c-33.037 13.664-48.903 5.926-63.201-3.77z" fill="url(#G)"/><path clip-path="url(#F)" d="m88.226 83.334c14.313 9.637 30.212 17.313 63.243 3.66l-16.281 56.234c-33.037 13.664-48.903 5.926-63.201-3.77z" fill="none"/><path clip-rule="evenodd" d="m86.933 83.182-.17.398-1.178.852c.076-.355.984-1.012 1.264-1.207.037-.028.084-.043.084-.043z" fill="#ffcd02" fill-rule="evenodd"/><path d="m88.133 83.686c-.657-.383-1.193-.152-1.443-.043.039-.121.174-.426.174-.426.532-.34.774-.34 1.271-.102.096.235.033.422-.002.571z" fill="url(#H)"/></g></g></svg>